<svg xmlns="http://www.w3.org/2000/svg" viewBox="0 0 1400 2050" font-family="'Segoe UI','Helvetica Neue',Arial,sans-serif">
<style>
  .layer-label { font-size: 13px; font-weight: 700; letter-spacing: 2px; text-transform: uppercase; }
  .pkg-title { font-size: 13px; font-weight: 600; }
  .file-name { font-size: 10px; font-family: 'JetBrains Mono','Fira Code','Consolas',monospace; }
  .file-desc { font-size: 9.5px; fill: #8888a0; }
  .arrow-label { font-size: 9px; fill: #6666a0; font-style: italic; }
  .legend-text { font-size: 10px; fill: #666; }
  .title { font-size: 22px; font-weight: 300; fill: #2a2a4a; }
  .subtitle { font-size: 12px; fill: #8888a0; }
  .new-badge { font-size: 8px; font-weight: 700; fill: #fff; }
</style>
<defs>
  <marker id="ah" viewBox="0 0 10 10" refX="9" refY="5" markerWidth="7" markerHeight="7" orient="auto-start-reverse">
    <path d="M1 1L9 5L1 9" fill="none" stroke="context-stroke" stroke-width="1.5" stroke-linecap="round" stroke-linejoin="round"/>
  </marker>
  <marker id="ah-g" viewBox="0 0 10 10" refX="9" refY="5" markerWidth="7" markerHeight="7" orient="auto">
    <path d="M1 1L9 5L1 9" fill="none" stroke="#34d399" stroke-width="1.5" stroke-linecap="round" stroke-linejoin="round"/>
  </marker>
</defs>

<!-- Background -->
<rect width="1400" height="2050" fill="#fafafa" rx="8"/>

<!-- Title -->
<text x="700" y="40" text-anchor="middle" class="title">AI4Math — Project Architecture Overview</text>
<text x="700" y="62" text-anchor="middle" class="subtitle">Formal Theorem Proving Agent · 85+ source files · 5 layers · 3 architectural innovations</text>
<text x="700" y="80" text-anchor="middle" class="subtitle" style="fill:#34d399">Green borders = new modules (SubAgent Runtime · Lifecycle Hooks · Strategy Plugins)</text>

<!-- ═══════════════════ LAYER 0: ENTRY POINTS ═══════════════════ -->
<rect x="30" y="100" width="1340" height="100" rx="8" fill="#f0f0f8" stroke="#c0c0d8" stroke-width="0.5"/>
<text x="55" y="120" class="layer-label" fill="#6666a0">LAYER 0 — ENTRY POINTS &amp; CONFIG</text>

<!-- Entry scripts -->
<g transform="translate(55,130)">
  <rect width="200" height="58" rx="6" fill="#e8e8f4" stroke="#b0b0d0" stroke-width="0.5"/>
  <text x="10" y="16" class="pkg-title" fill="#4a4a7a">Entry Scripts</text>
  <text x="10" y="30" class="file-name" fill="#5a5a9a">run_single.py</text><text x="120" y="30" class="file-desc">single theorem</text>
  <text x="10" y="42" class="file-name" fill="#5a5a9a">run_benchmark.py</text><text x="120" y="42" class="file-desc">batch eval</text>
  <text x="10" y="54" class="file-name" fill="#5a5a9a">run_dual_demo.py</text><text x="120" y="54" class="file-desc">APE+Lean4 demo</text>
</g>

<g transform="translate(275,130)">
  <rect width="200" height="58" rx="6" fill="#e8e8f4" stroke="#b0b0d0" stroke-width="0.5"/>
  <text x="10" y="16" class="pkg-title" fill="#4a4a7a">Config</text>
  <text x="10" y="30" class="file-name" fill="#5a5a9a">config/default.yaml</text><text x="140" y="30" class="file-desc">defaults</text>
  <text x="10" y="42" class="file-name" fill="#5a5a9a">config/schema.py</text><text x="140" y="42" class="file-desc">validation</text>
  <text x="10" y="54" class="file-name" fill="#5a5a9a">config/experiments/</text><text x="140" y="54" class="file-desc">per-bench</text>
</g>

<g transform="translate(495,130)">
  <rect width="200" height="58" rx="6" fill="#e8e8f4" stroke="#b0b0d0" stroke-width="0.5"/>
  <text x="10" y="16" class="pkg-title" fill="#4a4a7a">Benchmarks</text>
  <text x="10" y="30" class="file-name" fill="#5a5a9a">benchmarks/loader.py</text><text x="140" y="30" class="file-desc">dataset load</text>
  <text x="10" y="42" class="file-name" fill="#5a5a9a">benchmarks/eval_runner.py</text><text x="152" y="42" class="file-desc">runner</text>
  <text x="10" y="54" class="file-name" fill="#5a5a9a">benchmarks/metrics.py</text><text x="140" y="54" class="file-desc">pass@k etc</text>
</g>

<g transform="translate(715,130)">
  <rect width="200" height="58" rx="6" fill="#e8e8f4" stroke="#b0b0d0" stroke-width="0.5"/>
  <text x="10" y="16" class="pkg-title" fill="#4a4a7a">Infrastructure</text>
  <text x="10" y="30" class="file-name" fill="#5a5a9a">docker/Dockerfile.lean</text><text x="145" y="30" class="file-desc">Lean4 env</text>
  <text x="10" y="42" class="file-name" fill="#5a5a9a">docker/Dockerfile.agent</text><text x="148" y="42" class="file-desc">agent env</text>
  <text x="10" y="54" class="file-name" fill="#5a5a9a">docker/docker-compose.yaml</text><text x="175" y="54" class="file-desc">orch.</text>
</g>

<g transform="translate(935,130)">
  <rect width="200" height="58" rx="6" fill="#e8e8f4" stroke="#b0b0d0" stroke-width="0.5"/>
  <text x="10" y="16" class="pkg-title" fill="#4a4a7a">Frontend</text>
  <text x="10" y="30" class="file-name" fill="#5a5a9a">index.html</text><text x="90" y="30" class="file-desc">demo + architecture</text>
  <text x="10" y="42" class="file-name" fill="#5a5a9a">docs/architecture.svg</text><text x="130" y="42" class="file-desc">this diagram</text>
  <text x="10" y="54" class="file-name" fill="#5a5a9a">docs/index.html</text><text x="105" y="54" class="file-desc">API docs</text>
</g>

<g transform="translate(1155,130)">
  <rect width="190" height="58" rx="6" fill="#e8e8f4" stroke="#b0b0d0" stroke-width="0.5"/>
  <text x="10" y="16" class="pkg-title" fill="#4a4a7a">Data (7 benchmarks)</text>
  <text x="10" y="30" class="file-name" fill="#5a5a9a">miniF2F</text><text x="60" y="30" class="file-desc">· FATE-M/H/X</text>
  <text x="10" y="42" class="file-name" fill="#5a5a9a">ProofNet</text><text x="60" y="42" class="file-desc">· PutnamBench</text>
  <text x="10" y="54" class="file-name" fill="#5a5a9a">FormalMATH</text>
</g>

<!-- ═══════════════════ LAYER 1: AGENT ═══════════════════ -->
<rect x="30" y="220" width="1340" height="580" rx="8" fill="#f5f0ff" stroke="#c0b0e0" stroke-width="0.7"/>
<text x="55" y="245" class="layer-label" fill="#7c6cf0">LAYER 1 — AGENT (Decision &amp; Strategy)</text>
<text x="350" y="245" style="font-size:10px;fill:#9a8ad0">The "brain" — decides what to prove, how to prove it, when to change strategy</text>

<!-- agent/brain -->
<g transform="translate(55,260)">
  <rect width="255" height="130" rx="6" fill="#ede8ff" stroke="#b0a0e0" stroke-width="0.5"/>
  <text x="10" y="16" class="pkg-title" fill="#5a4a9a">agent/brain/</text>
  <text x="100" y="16" class="file-desc">LLM interface &amp; prompt engineering</text>
  <text x="10" y="32" class="file-name" fill="#6a5aaa">llm_provider.py</text><text x="130" y="32" class="file-desc">LLMProvider ABC + cache</text>
  <text x="10" y="44" class="file-name" fill="#6a5aaa">claude_provider.py</text><text x="130" y="44" class="file-desc">Claude API + retry</text>
  <text x="10" y="56" class="file-name" fill="#6a5aaa">roles.py</text><text x="130" y="56" class="file-desc">11 AgentRole + prompts</text>
  <text x="10" y="68" class="file-name" fill="#6a5aaa">prompt_builder.py</text><text x="130" y="68" class="file-desc">template engine</text>
  <text x="10" y="80" class="file-name" fill="#6a5aaa">response_parser.py</text><text x="130" y="80" class="file-desc">extract lean code</text>
</g>

<!-- agent/strategy -->
<g transform="translate(330,260)">
  <rect width="255" height="130" rx="6" fill="#ede8ff" stroke="#b0a0e0" stroke-width="0.5"/>
  <text x="10" y="16" class="pkg-title" fill="#5a4a9a">agent/strategy/</text>
  <text x="100" y="16" class="file-desc">adaptive strategy control</text>
  <text x="10" y="32" class="file-name" fill="#6a5aaa">meta_controller.py</text><text x="130" y="32" class="file-desc">initial strategy select</text>
  <text x="10" y="44" class="file-name" fill="#6a5aaa">strategy_switcher.py</text><text x="130" y="44" class="file-desc">4-level escalation</text>
  <text x="10" y="56" class="file-name" fill="#6a5aaa">confidence_estimator.py</text><text x="145" y="56" class="file-desc">abstain decision</text>
  <text x="10" y="68" class="file-name" fill="#6a5aaa">budget_allocator.py</text><text x="130" y="68" class="file-desc">sample/token/time</text>
  <text x="10" y="80" class="file-name" fill="#6a5aaa">reflection.py</text><text x="130" y="80" class="file-desc">failure analysis</text>
  <text x="10" y="92" class="file-name" fill="#6a5aaa">refinement_modes.py</text><text x="130" y="92" class="file-desc">L/M/H configs</text>
</g>

<!-- agent/memory -->
<g transform="translate(605,260)">
  <rect width="195" height="80" rx="6" fill="#ede8ff" stroke="#b0a0e0" stroke-width="0.5"/>
  <text x="10" y="16" class="pkg-title" fill="#5a4a9a">agent/memory/</text>
  <text x="10" y="32" class="file-name" fill="#6a5aaa">working_memory.py</text><text x="125" y="32" class="file-desc">task state</text>
  <text x="10" y="44" class="file-name" fill="#6a5aaa">episodic_memory.py</text><text x="125" y="44" class="file-desc">history</text>
</g>

<!-- agent/context -->
<g transform="translate(605,350)">
  <rect width="195" height="92" rx="6" fill="#ede8ff" stroke="#b0a0e0" stroke-width="0.5"/>
  <text x="10" y="16" class="pkg-title" fill="#5a4a9a">agent/context/</text>
  <text x="10" y="32" class="file-name" fill="#6a5aaa">context_window.py</text><text x="125" y="32" class="file-desc">managed ctx</text>
  <text x="10" y="44" class="file-name" fill="#6a5aaa">compressor.py</text><text x="125" y="44" class="file-desc">3-phase compress</text>
  <text x="10" y="56" class="file-name" fill="#6a5aaa">priority_ranker.py</text><text x="125" y="56" class="file-desc">12 categories</text>
  <text x="10" y="68" class="file-name" fill="#6a5aaa">error_summarizer.py</text><text x="125" y="68" class="file-desc">round summary</text>
</g>

<!-- agent/tools -->
<g transform="translate(55,410)">
  <rect width="255" height="80" rx="6" fill="#ede8ff" stroke="#b0a0e0" stroke-width="0.5"/>
  <text x="10" y="16" class="pkg-title" fill="#5a4a9a">agent/tools/</text>
  <text x="80" y="16" class="file-desc">tool registry &amp; execution</text>
  <text x="10" y="32" class="file-name" fill="#6a5aaa">tool_registry.py</text><text x="130" y="32" class="file-desc">register + schema</text>
  <text x="10" y="44" class="file-name" fill="#6a5aaa">tool_executor.py</text><text x="130" y="44" class="file-desc">dispatch + error</text>
  <text x="10" y="56" class="file-name" fill="#6a5aaa">cas_bridge.py</text><text x="130" y="56" class="file-desc">SageMath CAS</text>
  <text x="10" y="68" class="file-name" fill="#6a5aaa">lean_automation.py</text><text x="130" y="68" class="file-desc">tactic auto</text>
</g>

<!-- agent/executor -->
<g transform="translate(330,410)">
  <rect width="255" height="68" rx="6" fill="#ede8ff" stroke="#b0a0e0" stroke-width="0.5"/>
  <text x="10" y="16" class="pkg-title" fill="#5a4a9a">agent/executor/</text>
  <text x="100" y="16" class="file-desc">sandbox &amp; resource control</text>
  <text x="10" y="32" class="file-name" fill="#6a5aaa">sandbox.py</text><text x="130" y="32" class="file-desc">subprocess + Docker</text>
  <text x="10" y="44" class="file-name" fill="#6a5aaa">lean_env.py</text><text x="130" y="44" class="file-desc">Lean4 environment</text>
  <text x="10" y="56" class="file-name" fill="#6a5aaa">resource_limiter.py</text><text x="130" y="56" class="file-desc">timeout + limits</text>
</g>

<!-- ═══ NEW MODULES (green border) ═══ -->

<!-- agent/runtime (NEW) -->
<g transform="translate(830,260)">
  <rect width="255" height="105" rx="6" fill="#e8fff0" stroke="#34d399" stroke-width="1.5"/>
  <rect x="180" y="2" width="70" height="14" rx="3" fill="#34d399"/>
  <text x="215" y="12" text-anchor="middle" class="new-badge">NEW</text>
  <text x="10" y="16" class="pkg-title" fill="#1a7a4a">agent/runtime/</text>
  <text x="100" y="16" class="file-desc" style="fill:#4a9a6a">SubAgent runtime</text>
  <text x="10" y="35" class="file-name" fill="#2a8a5a">sub_agent.py</text><text x="120" y="35" class="file-desc" style="fill:#5aaa7a">isolated ctx + model + role</text>
  <text x="10" y="49" class="file-name" fill="#2a8a5a">agent_pool.py</text><text x="120" y="49" class="file-desc" style="fill:#5aaa7a">parallel dispatch + inject</text>
  <text x="10" y="63" class="file-name" fill="#2a8a5a">result_fuser.py</text><text x="120" y="63" class="file-desc" style="fill:#5aaa7a">cross-agent merge + rank</text>
  <text x="10" y="82" class="file-desc" style="fill:#3a9a6a;font-size:9px">Solves: homogeneous parallel → heterogeneous multi-agent</text>
  <text x="10" y="94" class="file-desc" style="fill:#3a9a6a;font-size:9px">Solves: cross-direction information flow breakage</text>
</g>

<!-- agent/hooks (NEW) -->
<g transform="translate(830,380)">
  <rect width="255" height="115" rx="6" fill="#fff8e8" stroke="#f59e0b" stroke-width="1.5"/>
  <rect x="180" y="2" width="70" height="14" rx="3" fill="#f59e0b"/>
  <text x="215" y="12" text-anchor="middle" class="new-badge">NEW</text>
  <text x="10" y="16" class="pkg-title" fill="#8a6a0a">agent/hooks/</text>
  <text x="90" y="16" class="file-desc" style="fill:#aa8a2a">Lifecycle hooks (9 events)</text>
  <text x="10" y="35" class="file-name" fill="#7a5a0a">hook_types.py</text><text x="120" y="35" class="file-desc" style="fill:#aa8a2a">HookEvent + HookAction</text>
  <text x="10" y="49" class="file-name" fill="#7a5a0a">hook_manager.py</text><text x="120" y="49" class="file-desc" style="fill:#aa8a2a">register + fire + pattern</text>
  <text x="10" y="63" class="file-name" fill="#7a5a0a">builtin_hooks.py</text><text x="120" y="63" class="file-desc" style="fill:#aa8a2a">4 built-in hooks:</text>
  <text x="25" y="76" class="file-desc" style="fill:#8a6a2a;font-size:9px">DomainClassifier · RepetitionDetector</text>
  <text x="25" y="87" class="file-desc" style="fill:#8a6a2a;font-size:9px">NatSubSafety · ReflectionCloser</text>
  <text x="10" y="103" class="file-desc" style="fill:#8a6a0a;font-size:9px">Solves: hardcoded if-checks → declarative rules</text>
</g>

<!-- agent/plugins (NEW) -->
<g transform="translate(1105,260)">
  <rect width="250" height="105" rx="6" fill="#f0e8ff" stroke="#8b5cf6" stroke-width="1.5"/>
  <rect x="175" y="2" width="70" height="14" rx="3" fill="#8b5cf6"/>
  <text x="210" y="12" text-anchor="middle" class="new-badge">NEW</text>
  <text x="10" y="16" class="pkg-title" fill="#5a3aaa">agent/plugins/</text>
  <text x="95" y="16" class="file-desc" style="fill:#7a5aca">Strategy plugin system</text>
  <text x="10" y="35" class="file-name" fill="#6a4aba">loader.py</text><text x="120" y="35" class="file-desc" style="fill:#8a6ada">discover + match + load</text>
  <text x="10" y="54" class="file-desc" style="fill:#6a4aba;font-size:9.5px">Plugin format: plugin.yaml + premises.jsonl</text>
  <text x="10" y="66" class="file-desc" style="fill:#6a4aba;font-size:9.5px">  + few_shot.md + tactics.yaml</text>
  <text x="10" y="82" class="file-desc" style="fill:#5a3aaa;font-size:9px">Solves: hardcoded strategies → YAML config</text>
  <text x="10" y="94" class="file-desc" style="fill:#5a3aaa;font-size:9px">Solves: domain knowledge can't be injected</text>
</g>

<!-- Example plugin -->
<g transform="translate(1105,380)">
  <rect width="250" height="75" rx="6" fill="#f8f0ff" stroke="#8b5cf6" stroke-width="0.5" stroke-dasharray="4 3"/>
  <text x="10" y="16" class="pkg-title" fill="#7a5aca">plugins/strategies/number-theory/</text>
  <text x="10" y="32" class="file-name" fill="#8a6ada">plugin.yaml</text><text x="100" y="32" class="file-desc" style="fill:#9a8aea">keywords + hook rules</text>
  <text x="10" y="44" class="file-name" fill="#8a6ada">premises.jsonl</text><text x="100" y="44" class="file-desc" style="fill:#9a8aea">Nat.sub_add_cancel etc</text>
  <text x="10" y="56" class="file-name" fill="#8a6ada">few_shot.md</text><text x="100" y="56" class="file-desc" style="fill:#9a8aea">N subtraction warning</text>
</g>

<!-- knowledge/retriever.py -->
<g transform="translate(55,505)">
  <rect width="190" height="38" rx="6" fill="#ede8ff" stroke="#b0a0e0" stroke-width="0.5"/>
  <text x="10" y="16" class="pkg-title" fill="#5a4a9a">knowledge/</text>
  <text x="10" y="30" class="file-name" fill="#6a5aaa">retriever.py</text><text x="90" y="30" class="file-desc">Mathlib search</text>
</g>

<!-- ═══════════════════ LAYER 2: ENGINE ═══════════════════ -->
<rect x="30" y="820" width="660" height="380" rx="8" fill="#f0faf5" stroke="#80c8a0" stroke-width="0.7"/>
<text x="55" y="845" class="layer-label" fill="#2a7a4a">LAYER 2 — ENGINE (APE Proof Engine)</text>
<text x="350" y="845" style="font-size:10px;fill:#5aaa7a">Persistent proof state · Layered verification · Parallel search</text>

<!-- engine/core -->
<g transform="translate(55,860)">
  <rect width="280" height="105" rx="6" fill="#e0f5ea" stroke="#80c8a0" stroke-width="0.5"/>
  <text x="10" y="16" class="pkg-title" fill="#2a6a3a">engine/core/</text>
  <text x="85" y="16" class="file-desc" style="fill:#5a9a6a">Type theory primitives</text>
  <text x="10" y="32" class="file-name" fill="#3a7a4a">expr.py</text><text x="100" y="32" class="file-desc" style="fill:#6aaa7a">CIC expressions (de Bruijn)</text>
  <text x="10" y="44" class="file-name" fill="#3a7a4a">name.py</text><text x="100" y="44" class="file-desc" style="fill:#6aaa7a">hierarchical names</text>
  <text x="10" y="56" class="file-name" fill="#3a7a4a">universe.py</text><text x="100" y="56" class="file-desc" style="fill:#6aaa7a">universe levels</text>
  <text x="10" y="68" class="file-name" fill="#3a7a4a">environment.py</text><text x="100" y="68" class="file-desc" style="fill:#6aaa7a">persistent env (PMap)</text>
  <text x="10" y="80" class="file-name" fill="#3a7a4a">local_ctx.py</text><text x="100" y="80" class="file-desc" style="fill:#6aaa7a">local context</text>
  <text x="10" y="92" class="file-name" fill="#3a7a4a">meta.py</text><text x="100" y="92" class="file-desc" style="fill:#6aaa7a">metavariables</text>
</g>

<!-- engine/kernel -->
<g transform="translate(355,860)">
  <rect width="200" height="40" rx="6" fill="#e0f5ea" stroke="#80c8a0" stroke-width="0.5"/>
  <text x="10" y="16" class="pkg-title" fill="#2a6a3a">engine/kernel/</text>
  <text x="10" y="30" class="file-name" fill="#3a7a4a">type_checker.py</text><text x="110" y="30" class="file-desc" style="fill:#6aaa7a">L0/L1/L2</text>
</g>

<!-- engine/state -->
<g transform="translate(355,910)">
  <rect width="200" height="92" rx="6" fill="#e0f5ea" stroke="#80c8a0" stroke-width="0.5"/>
  <text x="10" y="16" class="pkg-title" fill="#2a6a3a">engine/state/</text>
  <text x="80" y="16" class="file-desc" style="fill:#5a9a6a">proof state + search tree</text>
  <text x="10" y="32" class="file-name" fill="#3a7a4a">proof_state.py</text><text x="110" y="32" class="file-desc" style="fill:#6aaa7a">O(1) fork</text>
  <text x="10" y="44" class="file-name" fill="#3a7a4a">search_tree.py</text><text x="110" y="44" class="file-desc" style="fill:#6aaa7a">persistent tree</text>
  <text x="10" y="56" class="file-name" fill="#3a7a4a">goal.py</text><text x="110" y="56" class="file-desc" style="fill:#6aaa7a">goal management</text>
  <text x="10" y="68" class="file-name" fill="#3a7a4a">meta_ctx.py</text><text x="110" y="68" class="file-desc" style="fill:#6aaa7a">meta context</text>
  <text x="10" y="80" class="file-name" fill="#3a7a4a">views.py</text><text x="110" y="80" class="file-desc" style="fill:#6aaa7a">GoalView</text>
</g>

<!-- engine/search -->
<g transform="translate(55,978)">
  <rect width="280" height="55" rx="6" fill="#d8f0e0" stroke="#60b880" stroke-width="0.7"/>
  <text x="10" y="16" class="pkg-title" fill="#1a5a2a">engine/search/</text>
  <text x="95" y="16" class="file-desc" style="fill:#4a8a5a">MCTS + BFS + best-first</text>
  <text x="10" y="32" class="file-name" fill="#2a6a3a">__init__.py</text><text x="100" y="32" class="file-desc" style="fill:#5a9a6a">SearchCoordinator: UCB1 + backprop</text>
  <text x="100" y="44" class="file-desc" style="fill:#5a9a6a">virtual loss for parallel · 4 strategies</text>
</g>

<!-- engine/tactic + lean_bridge -->
<g transform="translate(355,1015)">
  <rect width="200" height="40" rx="6" fill="#e0f5ea" stroke="#80c8a0" stroke-width="0.5"/>
  <text x="10" y="16" class="pkg-title" fill="#2a6a3a">engine/tactic/</text>
  <text x="10" y="30" class="file-name" fill="#3a7a4a">engine.py</text><text x="80" y="30" class="file-desc" style="fill:#6aaa7a">execute_tactic</text>
</g>

<g transform="translate(55,1048)">
  <rect width="280" height="40" rx="6" fill="#e0f5ea" stroke="#80c8a0" stroke-width="0.5"/>
  <text x="10" y="16" class="pkg-title" fill="#2a6a3a">engine/lean_bridge/</text>
  <text x="10" y="30" class="file-name" fill="#3a7a4a">prelude.py</text><text x="80" y="30" class="file-desc" style="fill:#6aaa7a">Lean4 interop</text>
  <text x="150" y="30" class="file-name" fill="#3a7a4a">minif2f_problems.py</text>
</g>

<!-- ═══════════════════ LAYER 3: PROVER ═══════════════════ -->
<rect x="30" y="1110" width="1340" height="500" rx="8" fill="#fff5f0" stroke="#e0a080" stroke-width="0.7"/>
<text x="55" y="1135" class="layer-label" fill="#aa5a20">LAYER 3 — PROVER (Pipeline &amp; Capabilities)</text>
<text x="400" y="1135" style="font-size:10px;fill:#cc8855">Orchestrator · proof loop · repair · decompose · codegen · verify</text>

<!-- prover/pipeline -->
<g transform="translate(55,1150)">
  <rect width="370" height="145" rx="6" fill="#ffe8e0" stroke="#e0a080" stroke-width="0.5"/>
  <text x="10" y="16" class="pkg-title" fill="#8a4a1a">prover/pipeline/</text>
  <text x="110" y="16" class="file-desc" style="fill:#aa7a4a">Main orchestration</text>
  <text x="10" y="35" class="file-name" fill="#9a5a2a">orchestrator.py</text><text x="170" y="35" class="file-desc" style="fill:#aa7a4a">MAIN ENTRY — hooks + plugins + pool</text>
  <text x="10" y="49" class="file-name" fill="#9a5a2a">proof_loop.py</text><text x="170" y="49" class="file-desc" style="fill:#aa7a4a">generate → verify → repair cycle</text>
  <text x="10" y="63" class="file-name" fill="#9a5a2a">rollout_engine.py</text><text x="170" y="63" class="file-desc" style="fill:#aa7a4a">parallel sampling (legacy)</text>
  <text x="10" y="77" class="file-name" fill="#9a5a2a">sequential_engine.py</text><text x="170" y="77" class="file-desc" style="fill:#aa7a4a">simple sequential</text>
  <text x="10" y="91" class="file-name" fill="#9a5a2a">dual_engine.py</text><text x="170" y="91" class="file-desc" style="fill:#aa7a4a">APE + Lean4 dual path</text>
  <!-- NEW -->
  <rect x="8" y="100" width="354" height="18" rx="4" fill="#e8fff0" stroke="#34d399" stroke-width="1"/>
  <text x="15" y="113" class="file-name" fill="#1a7a4a">heterogeneous_engine.py</text><text x="170" y="113" class="file-desc" style="fill:#2a8a5a">NEW — 4-direction parallel + cross-fusion</text>
  <text x="10" y="132" class="file-name" fill="#9a5a2a">models.py</text><text x="170" y="132" class="file-desc" style="fill:#aa7a4a">ProofTrace, ProofAttempt, etc.</text>
</g>

<!-- prover/premise -->
<g transform="translate(445,1150)">
  <rect width="250" height="105" rx="6" fill="#ffe8e0" stroke="#e0a080" stroke-width="0.5"/>
  <text x="10" y="16" class="pkg-title" fill="#8a4a1a">prover/premise/</text>
  <text x="100" y="16" class="file-desc" style="fill:#aa7a4a">premise retrieval</text>
  <text x="10" y="32" class="file-name" fill="#9a5a2a">selector.py</text><text x="120" y="32" class="file-desc" style="fill:#aa7a4a">unified entry (hybrid)</text>
  <text x="10" y="44" class="file-name" fill="#9a5a2a">bm25_retriever.py</text><text x="120" y="44" class="file-desc" style="fill:#aa7a4a">sparse retrieval</text>
  <text x="10" y="56" class="file-name" fill="#9a5a2a">embedding_retriever.py</text><text x="140" y="56" class="file-desc" style="fill:#aa7a4a">dense retrieval</text>
  <text x="10" y="68" class="file-name" fill="#9a5a2a">reranker.py</text><text x="120" y="68" class="file-desc" style="fill:#aa7a4a">RRF fusion</text>
  <text x="10" y="80" class="file-name" fill="#9a5a2a">tactic_suggester.py</text><text x="120" y="80" class="file-desc" style="fill:#aa7a4a">tactic suggestions</text>
</g>

<!-- prover/repair -->
<g transform="translate(55,1310)">
  <rect width="250" height="92" rx="6" fill="#ffe8e0" stroke="#e0a080" stroke-width="0.5"/>
  <text x="10" y="16" class="pkg-title" fill="#8a4a1a">prover/repair/</text>
  <text x="85" y="16" class="file-desc" style="fill:#aa7a4a">error diagnosis + auto-repair</text>
  <text x="10" y="32" class="file-name" fill="#9a5a2a">error_diagnostor.py</text><text x="130" y="32" class="file-desc" style="fill:#aa7a4a">root cause analysis</text>
  <text x="10" y="44" class="file-name" fill="#9a5a2a">repair_generator.py</text><text x="130" y="44" class="file-desc" style="fill:#aa7a4a">LLM + rule-based fix</text>
  <text x="10" y="56" class="file-name" fill="#9a5a2a">repair_strategies.py</text><text x="130" y="56" class="file-desc" style="fill:#aa7a4a">strategy selection</text>
  <text x="10" y="68" class="file-name" fill="#9a5a2a">patch_applier.py</text><text x="130" y="68" class="file-desc" style="fill:#aa7a4a">apply patches</text>
</g>

<!-- prover/decompose -->
<g transform="translate(325,1310)">
  <rect width="220" height="68" rx="6" fill="#ffe8e0" stroke="#e0a080" stroke-width="0.5"/>
  <text x="10" y="16" class="pkg-title" fill="#8a4a1a">prover/decompose/</text>
  <text x="10" y="32" class="file-name" fill="#9a5a2a">goal_decomposer.py</text><text x="130" y="32" class="file-desc" style="fill:#aa7a4a">split theorem</text>
  <text x="10" y="44" class="file-name" fill="#9a5a2a">subgoal_scheduler.py</text><text x="135" y="44" class="file-desc" style="fill:#aa7a4a">schedule</text>
  <text x="10" y="56" class="file-name" fill="#9a5a2a">composition.py</text><text x="130" y="56" class="file-desc" style="fill:#aa7a4a">assemble proof</text>
</g>

<!-- prover/conjecture -->
<g transform="translate(565,1310)">
  <rect width="200" height="55" rx="6" fill="#ffe8e0" stroke="#e0a080" stroke-width="0.5"/>
  <text x="10" y="16" class="pkg-title" fill="#8a4a1a">prover/conjecture/</text>
  <text x="10" y="32" class="file-name" fill="#9a5a2a">conjecture_proposer.py</text><text x="145" y="32" class="file-desc" style="fill:#aa7a4a">gen</text>
  <text x="10" y="44" class="file-name" fill="#9a5a2a">conjecture_verifier.py</text><text x="145" y="44" class="file-desc" style="fill:#aa7a4a">filter</text>
</g>

<!-- prover/codegen -->
<g transform="translate(55,1420)">
  <rect width="250" height="92" rx="6" fill="#ffe8e0" stroke="#e0a080" stroke-width="0.5"/>
  <text x="10" y="16" class="pkg-title" fill="#8a4a1a">prover/codegen/</text>
  <text x="100" y="16" class="file-desc" style="fill:#aa7a4a">Lean4 code generation</text>
  <text x="10" y="32" class="file-name" fill="#9a5a2a">tactic_generator.py</text><text x="130" y="32" class="file-desc" style="fill:#aa7a4a">LLM → tactics</text>
  <text x="10" y="44" class="file-name" fill="#9a5a2a">scaffold_generator.py</text><text x="135" y="44" class="file-desc" style="fill:#aa7a4a">sorry skeleton</text>
  <text x="10" y="56" class="file-name" fill="#9a5a2a">sorry_closer.py</text><text x="130" y="56" class="file-desc" style="fill:#aa7a4a">fill sorry goals</text>
  <text x="10" y="68" class="file-name" fill="#9a5a2a">code_formatter.py</text><text x="130" y="68" class="file-desc" style="fill:#aa7a4a">format output</text>
  <text x="10" y="80" class="file-name" fill="#9a5a2a">import_resolver.py</text><text x="130" y="80" class="file-desc" style="fill:#aa7a4a">resolve imports</text>
</g>

<!-- prover/verifier -->
<g transform="translate(325,1420)">
  <rect width="220" height="92" rx="6" fill="#ffe8e0" stroke="#e0a080" stroke-width="0.5"/>
  <text x="10" y="16" class="pkg-title" fill="#8a4a1a">prover/verifier/</text>
  <text x="98" y="16" class="file-desc" style="fill:#aa7a4a">Lean4 verification</text>
  <text x="10" y="32" class="file-name" fill="#9a5a2a">lean_checker.py</text><text x="115" y="32" class="file-desc" style="fill:#aa7a4a">compile + check</text>
  <text x="10" y="44" class="file-name" fill="#9a5a2a">lean_repl.py</text><text x="115" y="44" class="file-desc" style="fill:#aa7a4a">interactive REPL</text>
  <text x="10" y="56" class="file-name" fill="#9a5a2a">error_parser.py</text><text x="115" y="56" class="file-desc" style="fill:#aa7a4a">parse Lean errors</text>
  <text x="10" y="68" class="file-name" fill="#9a5a2a">sorry_detector.py</text><text x="115" y="68" class="file-desc" style="fill:#aa7a4a">detect sorry</text>
  <text x="10" y="80" class="file-name" fill="#9a5a2a">integrity_checker.py</text><text x="125" y="80" class="file-desc" style="fill:#aa7a4a">final check</text>
</g>

<!-- prover/sketch -->
<g transform="translate(565,1420)">
  <rect width="200" height="68" rx="6" fill="#ffe8e0" stroke="#e0a080" stroke-width="0.5"/>
  <text x="10" y="16" class="pkg-title" fill="#8a4a1a">prover/sketch/</text>
  <text x="10" y="32" class="file-name" fill="#9a5a2a">sketch_generator.py</text><text x="128" y="32" class="file-desc" style="fill:#aa7a4a">skeleton</text>
  <text x="10" y="44" class="file-name" fill="#9a5a2a">hypothesis_generator.py</text><text x="140" y="44" class="file-desc" style="fill:#aa7a4a">hyp</text>
  <text x="10" y="56" class="file-name" fill="#9a5a2a">templates.py</text><text x="128" y="56" class="file-desc" style="fill:#aa7a4a">patterns</text>
</g>

<!-- prover/formalize -->
<g transform="translate(785,1310)">
  <rect width="190" height="55" rx="6" fill="#ffe8e0" stroke="#e0a080" stroke-width="0.5"/>
  <text x="10" y="16" class="pkg-title" fill="#8a4a1a">prover/formalize/</text>
  <text x="10" y="32" class="file-name" fill="#9a5a2a">autoformalize.py</text><text x="115" y="32" class="file-desc" style="fill:#aa7a4a">NL→Lean4</text>
  <text x="10" y="44" class="file-name" fill="#9a5a2a">statement_verifier.py</text><text x="128" y="44" class="file-desc" style="fill:#aa7a4a">verify</text>
</g>

<!-- prover/lemma_bank -->
<g transform="translate(785,1380)">
  <rect width="190" height="68" rx="6" fill="#ffe8e0" stroke="#e0a080" stroke-width="0.5"/>
  <text x="10" y="16" class="pkg-title" fill="#8a4a1a">prover/lemma_bank/</text>
  <text x="10" y="32" class="file-name" fill="#9a5a2a">bank.py</text><text x="100" y="32" class="file-desc" style="fill:#aa7a4a">store + retrieve</text>
  <text x="10" y="44" class="file-name" fill="#9a5a2a">lemma_extractor.py</text><text x="120" y="44" class="file-desc" style="fill:#aa7a4a">from proof</text>
  <text x="10" y="56" class="file-name" fill="#9a5a2a">lemma_verifier.py</text><text x="120" y="56" class="file-desc" style="fill:#aa7a4a">Lean4 check</text>
</g>

<!-- ═══════════════════ DEPENDENCY ARROWS ═══════════════════ -->

<!-- Entry → Orchestrator -->
<line x1="155" y1="195" x2="240" y2="1165" stroke="#aa5a20" stroke-width="1.2" stroke-dasharray="4 3" marker-end="url(#ah)"/>
<text x="160" y="700" class="arrow-label" transform="rotate(85,160,700)">entry scripts call orchestrator.prove()</text>

<!-- Orchestrator → Agent modules -->
<line x1="250" y1="1150" x2="180" y2="498" stroke="#7c6cf0" stroke-width="1" stroke-dasharray="3 3" marker-end="url(#ah)"/>

<!-- Orchestrator → Engine -->
<line x1="200" y1="1150" x2="200" y2="1095" stroke="#2a7a4a" stroke-width="1" stroke-dasharray="3 3" marker-end="url(#ah)"/>

<!-- NEW: Orchestrator → Hooks -->
<line x1="400" y1="1150" x2="955" y2="498" stroke="#f59e0b" stroke-width="1.5" marker-end="url(#ah)"/>

<!-- NEW: Orchestrator → Plugins -->
<line x1="410" y1="1150" x2="1130" y2="370" stroke="#8b5cf6" stroke-width="1.5" marker-end="url(#ah)"/>

<!-- NEW: Orchestrator → AgentPool -->
<line x1="420" y1="1150" x2="955" y2="370" stroke="#34d399" stroke-width="1.5" marker-end="url(#ah)"/>

<!-- NEW: HeteroEngine → AgentPool -->
<rect x="430" y="1255" width="8" height="8" rx="2" fill="#34d399"/>
<text x="445" y="1263" class="file-desc" style="fill:#2a8a5a;font-size:9px">heterogeneous_engine → agent_pool → sub_agent (NEW data flow)</text>

<!-- Plugins → Hooks (plugin registers hooks) -->
<line x1="1105" y1="350" x2="1085" y2="410" stroke="#8b5cf6" stroke-width="1" stroke-dasharray="3 3" marker-end="url(#ah)"/>
<text x="1095" y="380" class="arrow-label">plugin.yaml hooks → HookManager</text>

<!-- Brain → roles for all agents -->
<line x1="310" y1="340" x2="830" y2="300" stroke="#7c6cf0" stroke-width="0.8" stroke-dasharray="2 3"/>

<!-- ═══════════════════ LEGEND ═══════════════════ -->
<g transform="translate(30,1640)">
  <rect width="1340" height="100" rx="8" fill="#f8f8fc" stroke="#d0d0e0" stroke-width="0.5"/>
  <text x="20" y="22" class="pkg-title" fill="#4a4a6a">Legend</text>
  
  <rect x="20" y="35" width="30" height="14" rx="3" fill="#ede8ff" stroke="#b0a0e0" stroke-width="0.5"/>
  <text x="58" y="46" class="legend-text">Existing module</text>

  <rect x="170" y="35" width="30" height="14" rx="3" fill="#e8fff0" stroke="#34d399" stroke-width="1.5"/>
  <text x="208" y="46" class="legend-text" style="fill:#1a7a4a;font-weight:600">NEW: SubAgent Runtime</text>

  <rect x="390" y="35" width="30" height="14" rx="3" fill="#fff8e8" stroke="#f59e0b" stroke-width="1.5"/>
  <text x="428" y="46" class="legend-text" style="fill:#8a6a0a;font-weight:600">NEW: Lifecycle Hooks</text>

  <rect x="590" y="35" width="30" height="14" rx="3" fill="#f0e8ff" stroke="#8b5cf6" stroke-width="1.5"/>
  <text x="628" y="46" class="legend-text" style="fill:#5a3aaa;font-weight:600">NEW: Strategy Plugins</text>

  <rect x="810" y="35" width="30" height="14" rx="3" fill="#ffe8e0" stroke="#e0a080" stroke-width="0.5"/>
  <text x="848" y="46" class="legend-text">Prover pipeline</text>

  <rect x="980" y="35" width="30" height="14" rx="3" fill="#e0f5ea" stroke="#80c8a0" stroke-width="0.5"/>
  <text x="1018" y="46" class="legend-text">APE engine</text>

  <line x1="1130" y1="42" x2="1180" y2="42" stroke="#7c6cf0" stroke-width="1.5" marker-end="url(#ah)"/>
  <text x="1188" y="46" class="legend-text">dependency flow</text>

  <text x="20" y="75" class="legend-text" style="font-size:9.5px">
    Total: 85+ Python source files · 12 sub-packages in agent/ · 5 sub-packages in engine/ · 11 sub-packages in prover/
  </text>
  <text x="20" y="90" class="legend-text" style="font-size:9.5px">
    Data flow: Entry scripts → Orchestrator → {HookManager fires events, PluginLoader matches domain, AgentPool dispatches SubAgents} → Engine verifies → Prover assembles
  </text>
</g>

</svg>
